HIERARCHY
ROOT Hips
{
 OFFSET 0.000000 0.000000 0.000000
 CHANNELS 6 Xposition Yposition Zposition Yrotation Xrotation Zrotation
 JOINT Chest
 {
  OFFSET 0.000000 9.585900 0.002600
  CHANNELS 3 Yrotation Xrotation Zrotation
  JOINT Chest2
  {
   OFFSET 0.000000 9.601200 -0.005300
   CHANNELS 3 Yrotation Xrotation Zrotation
   JOINT Chest3
   {
    OFFSET 0.000000 9.561800 0.000000
    CHANNELS 3 Yrotation Xrotation Zrotation
    JOINT Chest4
    {
     OFFSET 0.000000 9.552100 0.000000
     CHANNELS 3 Yrotation Xrotation Zrotation
     JOINT Neck
     {
      OFFSET 0.000000 14.453000 0.000000
      CHANNELS 3 Yrotation Xrotation Zrotation
      JOINT Head
      {
       OFFSET 0.000000 8.936500 -0.011300
       CHANNELS 3 Yrotation Xrotation Zrotation
       End Site
       {
        OFFSET 0.000000 17.073600 -0.006000
       }
      }
     }
     JOINT RightCollar
     {
      OFFSET -2.921100 9.558500 0.000000
      CHANNELS 3 Yrotation Xrotation Zrotation
      JOINT RightShoulder
      {
       OFFSET -13.519700 0.000000 0.000000
       CHANNELS 3 Yrotation Xrotation Zrotation
       JOINT RightElbow
       {
        OFFSET 0.000000 -29.696600 0.000000
        CHANNELS 3 Yrotation Xrotation Zrotation
        JOINT RightWrist
        {
         OFFSET 0.000000 -24.004700 0.000000
         CHANNELS 3 Yrotation Xrotation Zrotation
         End Site
         {
          OFFSET 0.000000 -17.728500 0.000000
         }
        }
       }
      }
     }
     JOINT LeftCollar
     {
      OFFSET 2.921100 9.558500 0.000000
      CHANNELS 3 Yrotation Xrotation Zrotation
      JOINT LeftShoulder
      {
       OFFSET 13.519700 0.000000 0.000000
       CHANNELS 3 Yrotation Xrotation Zrotation
       JOINT LeftElbow
       {
        OFFSET 0.000000 -29.696600 0.000000
        CHANNELS 3 Yrotation Xrotation Zrotation
        JOINT LeftWrist
        {
         OFFSET 0.000000 -24.004700 0.000000
         CHANNELS 3 Yrotation Xrotation Zrotation
         End Site
         {
          OFFSET 0.000000 -17.728500 0.000000
         }
        }
       }
      }
     }
    }
   }
  }
 }
 JOINT RightHip
 {
  OFFSET -7.771700 -0.012900 -0.001300
  CHANNELS 3 Yrotation Xrotation Zrotation
  JOINT RightKnee
  {
   OFFSET 0.000000 -40.869800 0.001200
   CHANNELS 3 Yrotation Xrotation Zrotation
   JOINT RightAnkle
   {
    OFFSET 0.000000 -39.717900 0.002100
    CHANNELS 3 Yrotation Xrotation Zrotation
    JOINT RightToe
    {
     OFFSET 0.000000 -4.965400 11.033500
     CHANNELS 3 Yrotation Xrotation Zrotation
     End Site
     {
      OFFSET 0.000000 -1.423100 5.872300
     }
    }
   }
  }
 }
 JOINT LeftHip
 {
  OFFSET 7.771700 -0.012900 -0.001300
  CHANNELS 3 Yrotation Xrotation Zrotation
  JOINT LeftKnee
  {
   OFFSET 0.000000 -40.869800 0.001200
   CHANNELS 3 Yrotation Xrotation Zrotation
   JOINT LeftAnkle
   {
    OFFSET 0.000000 -39.717900 0.002100
    CHANNELS 3 Yrotation Xrotation Zrotation
    JOINT LeftToe
    {
     OFFSET 0.000000 -4.965400 11.033500
     CHANNELS 3 Yrotation Xrotation Zrotation
     End Site
     {
      OFFSET 0.000000 -1.423100 5.872300
     }
    }
   }
  }
 }
}
MOTION
Frames: 11
Frame Time: 0.008333
-118.922928 57.956467 102.358276 175.348201 -32.418088 -1.021054 1.998620 22.153876 3.339304 0.186643 3.095369 0.416515 0.346983 5.064660 0.665984 1.563603 18.690023 2.741253 3.388575 15.267764 -3.876116 7.709504 -7.177874 -8.450637 3.876609 -2.216425 -0.732188 16.699859 -21.500982 -21.114199 121.630985 -76.173163 -72.491895 11.021129 -16.911521 -37.578988 -8.290033 -3.145356 -4.494866 -1.139668 -10.979835 -2.175009 38.760338 -38.847886 -71.314512 8.110109 -13.651602 29.706795 2.707540 -42.870810 -1.187239 -11.335930 66.978022 -12.879396 6.867003 22.162253 3.285954 -0.237104 -14.586719 2.216946 -5.315123 -40.170688 2.802384 25.165248 64.425561 23.176092 -16.611488 5.975586 -2.711060 -0.097968 -0.022496 -0.049468
-118.921320 57.954407 102.365956 175.346186 -32.427616 -1.030549 2.021237 22.172615 3.348265 0.189195 3.104403 0.418516 0.342231 5.068502 0.669023 1.581635 18.723661 2.738741 3.386573 15.237238 -3.818714 7.691145 -7.207596 -8.310930 3.871917 -2.191527 -0.728768 16.720016 -21.509838 -21.120017 121.745647 -76.217722 -72.653510 11.037890 -16.868145 -37.516043 -8.309706 -3.131676 -4.490755 -1.152520 -11.014232 -2.157621 38.792539 -38.829971 -71.347957 8.095964 -13.653367 29.706958 2.657892 -42.858886 -1.138337 -11.384457 66.950127 -12.950577 6.894499 22.180769 3.283098 -0.226674 -14.588451 2.215494 -5.314966 -40.166952 2.811602 25.171105 64.424099 23.186813 -16.615753 5.980643 -2.712676 -0.091778 -0.022879 -0.048328
-118.920311 57.954303 102.370729 175.347779 -32.453945 -1.038835 2.029290 22.201996 3.355947 0.194594 3.117098 0.415359 0.347259 5.081445 0.669834 1.589634 18.744864 2.740962 3.376912 15.194132 -3.795519 7.644299 -7.224995 -8.137700 3.870311 -2.162994 -0.728404 16.744202 -21.521145 -21.133162 121.841314 -76.270758 -72.797440 11.091616 -16.833982 -37.485775 -8.324642 -3.147777 -4.483404 -1.162371 -11.017750 -2.148429 38.825006 -38.811112 -71.381045 8.090602 -13.652360 29.708326 2.610342 -42.829795 -1.096406 -11.390821 66.938172 -12.980341 6.901717 22.183113 3.278563 -0.227924 -14.585109 2.216814 -5.316173 -40.140733 2.815277 25.173395 64.417617 23.193930 -16.626568 5.979640 -2.718695 -0.089323 -0.019873 -0.045296
-118.920303 57.954850 102.374675 175.348780 -32.481889 -1.042935 2.037018 22.232919 3.359992 0.214342 3.145480 0.405302 0.342637 5.086253 0.675966 1.598265 18.758284 2.744688 3.355295 15.203707 -3.688079 7.576048 -7.287016 -8.049715 3.863633 -2.138495 -0.726023 16.768361 -21.533723 -21.152146 121.958743 -76.403316 -72.947160 11.163754 -16.767569 -37.411362 -8.338264 -3.119609 -4.490732 -1.186587 -11.063449 -2.113448 38.860820 -38.793588 -71.416928 8.098454 -13.648613 29.706583 2.587549 -42.799901 -1.075557 -11.388420 66.931971 -12.988905 6.902152 22.183511 3.276012 -0.230677 -14.582287 2.217942 -5.313911 -40.112940 2.813880 25.175369 64.412591 23.199988 -16.639688 5.979099 -2.719959 -0.082649 -0.018777 -0.046620
-118.920872 57.955380 102.378854 175.348220 -32.504137 -1.046162 2.050839 22.261191 3.360971 0.218958 3.156488 0.406585 0.345579 5.099197 0.676389 1.630301 18.828769 2.735175 3.300593 15.141920 -3.594580 7.488018 -7.337682 -7.929417 3.840577 -2.171422 -0.710868 16.785198 -21.548162 -21.171954 122.065721 -76.446156 -73.093614 11.180126 -16.738006 -37.365582 -8.367497 -3.143482 -4.473709 -1.209553 -11.104238 -2.078766 38.888030 -38.780784 -71.446769 8.081892 -13.649098 29.701116 2.568172 -42.774940 -1.057841 -11.407804 66.920238 -13.011271 6.903308 22.187634 3.262938 -0.235146 -14.578868 2.224520 -5.305756 -40.089755 2.809314 25.174423 64.402863 23.202574 -16.645104 5.984571 -2.718031 -0.089265 -0.018753 -0.046497
-118.922015 57.957008 102.381472 175.356381 -32.533250 -1.053869 2.060632 22.298921 3.364086 0.214263 3.156558 0.410539 0.356075 5.122023 0.673472 1.638203 18.848602 2.733483 3.271125 15.105073 -3.554497 7.352017 -7.369751 -7.758930 3.836384 -2.157873 -0.708996 16.792317 -21.563579 -21.189183 122.197096 -76.521313 -73.246116 11.241479 -16.698877 -37.342846 -8.378780 -3.152585 -4.468858 -1.217279 -11.118465 -2.057337 38.905441 -38.762477 -71.472325 8.062410 -13.647479 29.696281 2.529293 -42.738112 -1.029513 -11.454338 66.894151 -13.068661 6.913517 22.202351 3.252888 -0.221178 -14.580749 2.224940 -5.291799 -40.057799 2.796306 25.161370 64.390159 23.199538 -16.649763 5.992044 -2.714988 -0.084820 -0.018846 -0.045177
-118.924404 57.957995 102.385021 175.362153 -32.551461 -1.057674 2.073985 22.327988 3.366411 0.207463 3.154713 0.413389 0.361934 5.136909 0.672144 1.638052 18.850000 2.734117 3.209384 15.119896 -3.485157 7.226378 -7.426125 -7.635362 3.839602 -2.119824 -0.713239 16.792703 -21.577991 -21.202890 122.338628 -76.588903 -73.398555 11.272236 -16.658773 -37.281565 -8.385866 -3.164887 -4.462613 -1.217595 -11.103794 -2.054884 38.926327 -38.745764 -71.493210 8.059799 -13.643609 29.699158 2.500276 -42.715157 -1.012193 -11.465723 66.879233 -13.094555 6.919403 22.211347 3.256930 -0.215309 -14.582185 2.219740 -5.292524 -40.039474 2.792287 25.161994 64.385805 23.199363 -16.649928 5.993343 -2.714024 -0.072574 -0.018799 -0.041771
-118.927743 57.958586 102.388990 175.368075 -32.562628 -1.060377 2.086081 22.350213 3.367572 0.209128 3.163235 0.413408 0.350881 5.124750 0.676587 1.646041 18.868629 2.731061 3.131508 15.129916 -3.418315 7.081177 -7.484789 -7.508449 3.839769 -2.083917 -0.718354 16.789114 -21.592802 -21.212128 122.478912 -76.600212 -73.556200 11.204490 -16.637380 -37.151141 -8.390485 -3.141490 -4.472600 -1.228841 -11.093618 -2.042409 38.959802 -38.753919 -71.527746 8.053569 -13.639065 29.692554 2.478075 -42.701179 -1.006229 -11.448187 66.871888 -13.086757 6.922164 22.218795 3.261149 -0.234296 -14.584085 2.219815 -5.288414 -40.031772 2.780130 25.168603 64.383090 23.210987 -16.640289 5.997421 -2.712941 -0.080202 -0.018980 -0.040122
-118.932587 57.958725 102.393174 175.370660 -32.567882 -1.056175 2.100441 22.366979 3.361132 0.210638 3.170028 0.413602 0.353401 5.135258 0.676768 1.653910 18.884903 2.729920 3.042452 15.107007 -3.355798 6.903009 -7.538518 -7.362663 3.824935 -2.071433 -0.716969 16.785209 -21.619604 -21.216933 122.577604 -76.618052 -73.662825 11.164806 -16.609562 -37.059856 -8.402376 -3.135314 -4.466289 -1.233159 -11.120283 -2.032010 38.972659 -38.726346 -71.537301 8.068512 -13.649538 29.696941 2.490130 -42.697563 -1.030019 -11.441357 66.867437 -13.073271 6.939089 22.235297 3.274827 -0.243085 -14.594044 2.214122 -5.276840 -40.030360 2.762067 25.174101 64.379266 23.222015 -16.642103 6.002021 -2.714767 -0.079202 -0.020605 -0.036890
-118.935235 57.959250 102.396479 175.375468 -32.577099 -1.068730 2.113937 22.385268 3.366540 0.212336 3.176954 0.413674 0.372077 5.174625 0.668244 1.648882 18.872362 2.738387 2.947157 15.084799 -3.292825 6.704970 -7.594772 -7.215181 3.815378 -2.060131 -0.716665 16.783123 -21.637019 -21.216953 122.684596 -76.661419 -73.772863 11.173341 -16.573197 -36.992009 -8.398192 -3.088239 -4.477354 -1.261203 -11.199743 -1.997414 38.995161 -38.680856 -71.543887 8.081136 -13.657418 29.701745 2.491456 -42.688687 -1.030110 -11.455673 66.858858 -13.078389 6.955610 22.253020 3.286039 -0.250906 -14.604386 2.211126 -5.282000 -40.026640 2.770327 25.175876 64.381632 23.232359 -16.648829 6.006440 -2.722678 -0.067815 -0.025841 -0.032456
-118.939166 57.959481 102.399275 175.387824 -32.585085 -1.079367 2.121106 22.402958 3.368668 0.223264 3.193184 0.410138 0.365636 5.176076 0.672591 1.652233 18.889508 2.737102 2.841268 15.061186 -3.233797 6.488467 -7.652122 -7.065921 3.809592 -2.053368 -0.721845 16.780678 -21.643837 -21.212833 122.780819 -76.695708 -73.882216 11.209228 -16.551748 -36.962654 -8.406287 -3.111421 -4.462850 -1.246052 -11.185339 -2.005852 39.011395 -38.661479 -71.567394 8.099978 -13.669378 29.709130 2.495478 -42.680128 -1.039694 -11.480781 66.850561 -13.093683 6.971149 22.269208 3.298279 -0.256666 -14.614611 2.208282 -5.294479 -40.020954 2.771989 25.160362 64.377501 23.224944 -16.651621 6.015368 -2.735438 -0.058076 -0.028739 -0.027066
